<?xml version="1.0" encoding="UTF-8"?>
<svg width="417px" height="107px" viewBox="0 0 417 107" version="1.1" xmlns="http://www.w3.org/2000/svg" xmlns:xlink="http://www.w3.org/1999/xlink">
    <!-- Generator: sketchtool 55.1 (78136) - https://sketchapp.com -->
    <title>73DB5665-17AB-440A-A38E-053B9DE41193</title>
    <desc>Created with sketchtool.</desc>
    <g id="Symbols" stroke="none" stroke-width="1" fill="none" fill-rule="evenodd">
        <g id="logo" transform="translate(-2.000000, -3.000000)">
            <g id="Tarjetas-molonas" transform="translate(0.000000, 2.000000)">
                <g id="Group-2">
                    <g id="Group" transform="translate(63.191223, 52.437060) rotate(-10.000000) translate(-63.191223, -52.437060) translate(7.318166, 9.294573)">
                        <path d="M101.280501,2.28495787 C104.148927,2.28495787 106.587093,3.28890858 108.594991,5.29680673 C110.602889,7.30470487 111.60684,9.74287042 111.60684,12.6112968 L111.60684,74.5693305 C111.60684,77.4377569 110.602889,79.8759224 108.594991,81.8838206 C106.587093,83.8917187 104.148927,84.8956694 101.280501,84.8956694 L11.7855631,84.8956694 C8.91713674,84.8956694 6.47897119,83.8917187 4.47107305,81.8838206 C2.4631749,79.8759224 1.45922419,77.4377569 1.45922419,74.5693305 L1.45922419,12.6112968 C1.45922419,9.74287042 2.4631749,7.30470487 4.47107305,5.29680673 C6.47897119,3.28890858 8.91713674,2.28495787 11.7855631,2.28495787 L101.280501,2.28495787 Z" id="Path" fill="#A2DEAF"></path>
                        <path d="M100.133109,0.646312951 C103.001536,0.646312951 105.439701,1.65026366 107.447599,3.65816181 C109.455497,5.66605996 110.459448,8.10422551 110.459448,10.9726519 L110.459448,72.9306856 C110.459448,75.799112 109.455497,78.2372775 107.447599,80.2451757 C105.439701,82.2530738 103.001536,83.2570245 100.133109,83.2570245 L10.6381716,83.2570245 C7.76974522,83.2570245 5.33157967,82.2530738 3.32368152,80.2451757 C1.31578338,78.2372775 0.311832666,75.799112 0.311832666,72.9306856 L0.311832666,10.9726519 C0.311832666,8.10422551 1.31578338,5.66605996 3.32368152,3.65816181 C5.33157967,1.65026366 7.76974522,0.646312951 10.6381716,0.646312951 L100.133109,0.646312951 Z" id="Path-Copy" fill="#114E4E"></path>
                        <path d="M103.575222,72.9306856 L103.575222,10.9726519 C103.575222,9.96870118 103.252524,9.14402937 102.607128,8.49863319 C101.961732,7.85323701 101.13706,7.53053891 100.133109,7.53053891 L10.6381716,7.53053891 C9.6342209,7.53053891 8.80954909,7.85323701 8.16415291,8.49863319 C7.51875672,9.14402937 7.19605863,9.96870118 7.19605863,10.9726519 L7.19605863,72.9306856 C7.19605863,73.9346363 7.51875672,74.7593081 8.16415291,75.4047043 C8.80954909,76.0501005 9.6342209,76.3727986 10.6381716,76.3727986 L100.133109,76.3727986 C101.13706,76.3727986 101.961732,76.0501005 102.607128,75.4047043 C103.252524,74.7593081 103.575222,73.9346363 103.575222,72.9306856 Z" id="Path" fill="#FFFFFF"></path>
                        <path d="M71.735677,55.7201207 C71.0185713,55.7201207 70.4090282,55.4691322 69.9070545,54.9671584 C69.4050808,54.4651847 69.1540923,53.8556417 69.1540923,53.1385359 L69.1540923,51.4174794 C69.1540923,50.7003737 69.4050808,50.0908306 69.9070545,49.5888569 C70.4090282,49.0868832 71.0185713,48.8358947 71.735677,48.8358947 L94.1094114,48.8358947 C94.8265172,48.8358947 95.4360602,49.0868832 95.9380339,49.5888569 C96.4400077,50.0908306 96.6909962,50.7003737 96.6909962,51.4174794 L96.6909962,53.1385359 C96.6909962,53.8556417 96.4400077,54.4651847 95.9380339,54.9671584 C95.4360602,55.4691322 94.8265172,55.7201207 94.1094114,55.7201207 L71.735677,55.7201207 Z M71.735677,41.9516687 C71.0185713,41.9516687 70.4090282,41.7006802 69.9070545,41.1987065 C69.4050808,40.6967328 69.1540923,40.0871898 69.1540923,39.370084 L69.1540923,37.6490275 C69.1540923,36.9319217 69.4050808,36.3223787 69.9070545,35.820405 C70.4090282,35.3184313 71.0185713,35.0674428 71.735677,35.0674428 L94.1094114,35.0674428 C94.8265172,35.0674428 95.4360602,35.3184313 95.9380339,35.820405 C96.4400077,36.3223787 96.6909962,36.9319217 96.6909962,37.6490275 L96.6909962,39.370084 C96.6909962,40.0871898 96.4400077,40.6967328 95.9380339,41.1987065 C95.4360602,41.7006802 94.8265172,41.9516687 94.1094114,41.9516687 L71.735677,41.9516687 Z M71.735677,28.1832168 C71.0185713,28.1832168 70.4090282,27.9322283 69.9070545,27.4302546 C69.4050808,26.9282809 69.1540923,26.3187378 69.1540923,25.6016321 L69.1540923,23.8805756 C69.1540923,23.1634698 69.4050808,22.5539268 69.9070545,22.0519531 C70.4090282,21.5499793 71.0185713,21.2989908 71.735677,21.2989908 L94.1094114,21.2989908 C94.8265172,21.2989908 95.4360602,21.5499793 95.9380339,22.0519531 C96.4400077,22.5539268 96.6909962,23.1634698 96.6909962,23.8805756 L96.6909962,25.6016321 C96.6909962,26.3187378 96.4400077,26.9282809 95.9380339,27.4302546 C95.4360602,27.9322283 94.8265172,28.1832168 94.1094114,28.1832168 L71.735677,28.1832168 Z" id="Combined-Shape" fill="#E17334"></path>
                        <path d="M51.5132633,42.3819329 C55.2422179,43.5293028 58.1106476,45.7523362 60.1185457,49.0510268 C61.5527606,51.6326115 62.2698663,54.2859058 62.2698663,57.010913 L62.2698663,60.0227619 C62.2698663,62.6043466 61.3376285,64.8273768 59.4731495,66.6918558 C57.6086706,68.5563348 55.3856404,69.4885726 52.8040556,69.4885726 L23.5460953,69.4885726 C20.9645106,69.4885726 18.7414804,68.5563348 16.8770014,66.6918558 C15.0125224,64.8273768 14.0802846,62.6043466 14.0802846,60.0227619 L14.0802846,57.010913 C14.0802846,54.2859058 14.7973904,51.6326115 16.2316052,49.0510268 C18.2395034,45.7523362 21.107933,43.5293028 24.8368877,42.3819329 C22.2553029,39.2266615 20.9645106,35.6411294 20.9645106,31.6253298 C20.9645106,26.8924244 22.6497106,22.8407717 26.020114,19.4703683 C29.3905174,16.0999649 33.4421701,14.4147649 38.1750755,14.4147649 C42.9079808,14.4147649 46.9596335,16.0999649 50.3300369,19.4703683 C53.7004403,22.8407717 55.3856404,26.8924244 55.3856404,31.6253298 C55.3856404,35.6411294 54.094848,39.2266615 51.5132633,42.3819329 Z M38.1750755,21.2989908 C35.3066491,21.2989908 32.8684835,22.3029416 30.8605854,24.3108397 C28.8526872,26.3187378 27.8487365,28.7569034 27.8487365,31.6253298 C27.8487365,34.4937562 28.8526872,36.9319217 30.8605854,38.9398199 C32.8684835,40.947718 35.3066491,41.9516687 38.1750755,41.9516687 C41.0435019,41.9516687 43.4816674,40.947718 45.4895656,38.9398199 C47.4974637,36.9319217 48.5014144,34.4937562 48.5014144,31.6253298 C48.5014144,28.7569034 47.4974637,26.3187378 45.4895656,24.3108397 C43.4816674,22.3029416 41.0435019,21.2989908 38.1750755,21.2989908 Z M55.3856404,60.0227619 L55.3856404,57.010913 C55.3856404,55.1464341 54.8119538,53.461234 53.6645839,51.9553096 C52.517214,50.4493852 51.0112896,49.4095813 49.1468106,48.8358947 L44.6290373,47.5451023 C42.6211392,48.4056306 40.4698185,48.8358947 38.1750755,48.8358947 C35.8803324,48.8358947 33.7290118,48.4056306 31.7211136,47.5451023 L27.2033403,48.8358947 C25.3388614,49.4095813 23.8329369,50.4493852 22.685567,51.9553096 C21.5381971,53.461234 20.9645106,55.1464341 20.9645106,57.010913 L20.9645106,60.0227619 C20.9645106,60.7398677 21.2154991,61.3494107 21.7174728,61.8513844 C22.2194465,62.3533581 22.8289895,62.6043466 23.5460953,62.6043466 L52.8040556,62.6043466 C53.5211614,62.6043466 54.1307044,62.3533581 54.6326782,61.8513844 C55.1346519,61.3494107 55.3856404,60.7398677 55.3856404,60.0227619 Z" id="Combined-Shape" fill="#A2DEAF"></path>
                    </g>
                    <path d="M398.563875,86.4683051 C398.558114,86.3512719 398.555233,86.2337886 398.555233,86.1158549 C398.555233,84.8710819 398.847562,83.7866367 399.432228,82.862487 C400.016894,81.9383373 400.724141,81.2688104 401.55399,80.853886 C403.025085,78.2134583 404.307559,75.5447803 405.401451,72.847772 C406.495342,70.1507637 407.532638,67.2369068 408.513368,64.106114 L416.887254,62.9745078 C417.075856,67.8027184 417.396474,73.0269149 417.849119,78.6472539 C418.037721,80.9104776 418.132021,82.5512902 418.132021,83.5697409 C418.132021,85.8706851 417.547363,87.7566766 416.378031,89.227772 C415.208699,90.6988675 413.765915,91.7550227 412.049637,92.3962694 C410.333359,93.0375162 408.588817,93.3581347 406.815959,93.3581347 C405.00538,93.3581347 403.477726,93.0092263 402.232953,92.311399 C400.98818,91.6135716 400.064044,90.7082957 399.460518,89.595544 C399.409982,89.5023685 399.361562,89.4088625 399.315258,89.3150261 C397.211546,91.7841181 394.56298,93.0186528 391.369534,93.0186528 C389.822997,93.0186528 388.568813,92.6037347 387.606943,91.773886 C386.645073,90.9440373 386.050986,89.7370027 385.824663,88.1527461 C384.843933,89.6615619 383.665188,90.9063163 382.288394,91.8870466 C380.911599,92.8677769 379.299077,93.3581347 377.450777,93.3581347 C375.300715,93.3581347 373.509023,92.622598 372.075648,91.1515026 C370.642273,89.6804072 369.925596,87.3794975 369.925596,84.2487047 C369.925596,81.4573954 370.481963,78.5246786 371.594715,75.4504663 C372.707467,72.3762541 374.367139,69.7735858 376.573782,67.6423834 C378.780426,65.5111811 381.411384,64.4455959 384.466736,64.4455959 C386.013272,64.4455959 387.163727,64.7096347 387.918135,65.2377202 C388.672543,65.7658057 389.049741,66.4636226 389.049741,67.3311917 L389.049741,67.557513 L391.822176,54.5440415 L400.196062,53.4124352 L393.689326,83.9658031 C393.538445,84.531609 393.463005,85.1351263 393.463005,85.7763731 C393.463005,86.530781 393.642174,87.0682886 394.000518,87.3889119 C394.358862,87.7095353 394.952949,87.8698446 395.782798,87.8698446 C396.838969,87.8698446 397.753675,87.4172066 398.526943,86.5119171 C398.539295,86.4974567 398.551605,86.4829194 398.563875,86.4683051 Z M347.863105,90.0648129 C347.452652,90.4967384 347.027023,90.8683981 346.586218,91.1797927 C344.530456,92.632028 342.465295,93.3581347 340.390674,93.3581347 C338.806417,93.3581347 337.533373,92.9149267 336.571503,92.0284974 C335.609632,91.1420681 335.034405,89.8501639 334.845803,88.1527461 C333.751912,89.6992823 332.535447,90.9534667 331.196373,91.9153368 C329.857299,92.8772069 328.263636,93.3581347 326.415337,93.3581347 C324.265274,93.3581347 322.473582,92.622598 321.040207,91.1515026 C319.978258,90.061607 319.309699,88.5162318 319.034523,86.515349 C315.339753,91.0772246 310.991554,93.3581347 305.989845,93.3581347 C303.198535,93.3581347 301.029645,92.632028 299.483109,91.1797927 C297.936573,89.7275575 297.163316,87.4549377 297.163316,84.3618653 C297.163316,81.759158 297.681964,78.8924509 298.719275,75.761658 C299.756585,72.6308652 301.416258,69.9244674 303.698342,67.6423834 C305.980426,65.3602995 308.875423,64.2192746 312.38342,64.2192746 C314.646643,64.2192746 316.259166,64.7096324 317.221036,65.6903627 C318.182906,66.671093 318.663834,67.9158474 318.663834,69.4246632 C318.663834,70.7448771 318.380935,71.7633125 317.81513,72.48 C317.249324,73.1966875 316.532647,73.5550259 315.665078,73.5550259 C315.023831,73.5550259 314.363734,73.3287069 313.684767,72.8760622 C314.137412,71.6312891 314.363731,70.5185541 314.363731,69.5378238 C314.363731,68.8211363 314.231711,68.2553389 313.967668,67.8404145 C313.703626,67.4254902 313.307567,67.2180311 312.779482,67.2180311 C311.64787,67.2180311 310.516275,68.1421669 309.384663,69.9904663 C308.253051,71.8387657 307.328916,74.0830956 306.612228,76.7235233 C305.89554,79.363951 305.537202,81.7403003 305.537202,83.8526425 C305.537202,85.7009419 305.857821,86.9551262 306.499067,87.6152332 C307.140314,88.2753401 308.177609,88.6053886 309.610984,88.6053886 C311.647886,88.6053886 313.392428,88.1338907 314.844663,87.1908808 C316.091473,86.3812639 317.44253,85.2102143 318.897863,83.6777051 C318.968339,81.0581632 319.522139,78.315774 320.559275,75.4504663 C321.672026,72.3762541 323.331699,69.7735858 325.538342,67.6423834 C327.744985,65.5111811 330.375943,64.4455959 333.431295,64.4455959 C334.977832,64.4455959 336.128286,64.7096347 336.882694,65.2377202 C337.637102,65.7658057 338.014301,66.4636226 338.014301,67.3311917 L338.014301,67.7272539 L338.636684,64.7284974 L346.784249,64.7284974 L342.710466,83.9658031 C342.559585,84.531609 342.484145,85.1351263 342.484145,85.7763731 C342.484145,87.3983501 343.257402,88.2093264 344.803938,88.2093264 C345.860109,88.2093264 346.774815,87.7189686 347.548083,86.7382383 C348.314959,85.7656154 348.924153,84.4962167 349.375685,82.9300048 L353.234404,64.7284974 L361.381969,64.7284974 L360.646425,68.2364767 C361.928918,67.1048648 363.088803,66.2373087 364.126114,65.6337824 C365.163425,65.030256 366.28559,64.7284974 367.492642,64.7284974 C368.699695,64.7284974 369.652121,65.1434155 370.349948,65.9732642 C371.047776,66.803113 371.396684,67.8026885 371.396684,68.9720207 C371.396684,70.0659122 371.038346,71.0277679 370.321658,71.8576166 C369.604971,72.6874653 368.605395,73.1023834 367.322902,73.1023834 C366.493053,73.1023834 365.936685,72.9043543 365.653782,72.5082902 C365.370879,72.112226 365.15399,71.5369986 365.003109,70.7825907 C364.889948,70.2922255 364.776788,69.9338871 364.663627,69.7075648 C364.550466,69.4812424 364.343007,69.3680829 364.041244,69.3680829 C363.249115,69.3680829 362.579588,69.5283922 362.032642,69.8490155 C361.485697,70.1696389 360.77845,70.7260064 359.910881,71.5181347 L355.384456,93.0186528 L347.236891,93.0186528 L347.863105,90.0648129 Z M260.554173,88.3391982 C259.714601,89.5640935 258.791018,90.5109557 257.78342,91.1797927 C255.595637,92.632028 253.426747,93.3581347 251.276684,93.3581347 C249.466105,93.3581347 248.004462,92.7923373 246.89171,91.6607254 C246.111873,90.8676709 245.605302,89.7967354 245.371992,88.4479012 C244.55257,89.6202476 243.654066,90.5308756 242.676477,91.1797927 C240.488694,92.632028 238.319803,93.3581347 236.169741,93.3581347 C234.359162,93.3581347 232.897519,92.7923373 231.784767,91.6607254 C230.672015,90.5291135 230.115648,88.8317212 230.115648,86.5684974 C230.115648,85.6254875 230.266527,84.399593 230.56829,82.8907772 L234.415751,64.7284974 L242.563316,64.7284974 L238.489534,83.9658031 C238.338652,84.531609 238.263212,85.1351263 238.263212,85.7763731 C238.263212,86.530781 238.442382,87.0682886 238.800725,87.3889119 C239.159069,87.7095353 239.753156,87.8698446 240.583005,87.8698446 C241.676897,87.8698446 242.695332,87.4077766 243.638342,86.4836269 C244.581352,85.5594772 245.260309,84.3618726 245.675233,82.8907772 L251.729326,54.5440415 L260.103212,53.4124352 L253.596477,83.9658031 C253.445595,84.531609 253.370155,85.1351263 253.370155,85.7763731 C253.370155,86.530781 253.549325,87.0682886 253.907668,87.3889119 C254.266012,87.7095353 254.860099,87.8698446 255.689948,87.8698446 C256.78384,87.8698446 257.802275,87.4077766 258.745285,86.4836269 C259.232814,86.0058482 259.649767,85.45498 259.996146,84.8310174 C259.992083,84.6767888 259.990052,84.5204048 259.990052,84.3618653 C259.990052,81.759158 260.49927,78.8924509 261.51772,75.761658 C262.536171,72.6308652 264.195843,69.9244674 266.496788,67.6423834 C268.797732,65.3602995 271.721019,64.2192746 275.266736,64.2192746 C279.415979,64.2192746 281.49057,66.0298265 281.49057,69.6509845 C281.49057,71.7633266 280.887053,73.7058979 279.68,75.4787565 C278.472947,77.2516151 276.869855,78.6755387 274.870674,79.7505699 C272.871493,80.8256012 270.740322,81.4385485 268.477098,81.5894301 C268.401658,82.4192788 268.363938,82.9850762 268.363938,83.2868394 C268.363938,86.4176322 269.533253,87.9830052 271.871917,87.9830052 C272.928088,87.9830052 274.059683,87.7001065 275.266736,87.1343005 C276.473788,86.5684946 277.567663,85.8518178 278.548394,84.9842487 C277.529943,90.5668673 274.267178,93.3581347 268.76,93.3581347 C266.006411,93.3581347 263.856381,92.632028 262.309845,91.1797927 C261.525954,90.4437005 260.940731,89.4968386 260.554173,88.3391982 Z M217.822649,72.260363 L219.818031,62.8047668 C220.836482,58.1274378 222.533874,54.9306822 224.910259,53.2144041 C227.286644,51.4981261 230.002472,50.64 233.057824,50.64 C235.886854,50.64 238.282063,51.1114979 240.243523,52.0545078 C242.204984,52.9975177 243.185699,54.69491 243.185699,57.1467358 C243.185699,58.7309924 242.761351,59.8908772 241.912642,60.6264249 C241.063934,61.3619726 239.998348,61.7297409 238.715855,61.7297409 C237.735125,61.7297409 236.924148,61.493992 236.282902,61.022487 C235.641655,60.5509821 235.321036,59.7682956 235.321036,58.6744041 C235.321036,57.9577166 235.500205,57.3164795 235.858549,56.7506736 C236.216893,56.1848676 236.678961,55.9019689 237.244767,55.9019689 C237.50881,55.9019689 237.659689,55.9208288 237.697409,55.9585492 C237.659689,55.2041413 237.36736,54.6383439 236.820415,54.2611399 C236.273469,53.8839359 235.528502,53.6953368 234.585492,53.6953368 C232.925795,53.6953368 231.596171,54.2988541 230.59658,55.5059067 C229.59699,56.7129594 228.927463,58.2406125 228.587979,60.0889119 L227.626114,64.7284974 L232.152539,64.7284974 L231.699896,66.9917098 L227.173472,66.9917098 L220.723316,97.5450777 C219.968908,101.090795 218.667574,103.580304 216.819275,105.013679 C214.970975,106.447054 212.952964,107.163731 210.765181,107.163731 C208.69056,107.163731 207.002597,106.588503 205.701244,105.438031 C204.39989,104.287559 203.749223,102.750476 203.749223,100.826736 C203.749223,99.2424791 204.201861,97.941145 205.10715,96.9226943 C206.01244,95.9042436 207.125175,95.0932673 208.445389,94.4897409 C209.765602,93.8862146 211.462995,93.2449775 213.537617,92.5660104 L217.272173,74.868925 C215.762116,75.4820897 214.140073,75.9305448 212.40601,76.2143005 C212.104247,79.6468565 211.330991,82.645583 210.086218,85.2105699 C208.841445,87.7755569 207.238352,89.7558479 205.276891,91.1515026 C203.315431,92.5471572 201.18426,93.2449741 198.883316,93.2449741 C196.092007,93.2449741 193.885397,92.5282973 192.26342,91.0949223 C190.641443,89.6615472 189.830466,87.3983574 189.830466,84.305285 C189.830466,81.7402981 190.358544,78.8924509 191.414715,75.761658 C192.470886,72.6308652 194.168278,69.9244674 196.506943,67.6423834 C198.845608,65.3602995 201.787754,64.2192746 205.333472,64.2192746 C210.161682,64.2192746 212.575751,67.236861 212.575751,73.2721244 L212.575751,73.3287047 C212.688912,73.3664251 212.896372,73.385285 213.198135,73.385285 C214.442908,73.385285 215.876261,73.0552365 217.498238,72.3951295 C217.607054,72.350844 217.715191,72.3059218 217.822649,72.260363 Z M147.168912,62.6350259 L155.316477,62.6350259 L154.411192,66.8785492 C156.297212,65.2565722 158.503822,64.4455959 161.031088,64.4455959 C163.14343,64.4455959 164.821963,65.1434127 166.066736,66.5390674 C167.311509,67.934722 167.933886,70.2167717 167.933886,73.385285 C167.933886,76.3651962 167.500108,79.3733527 166.632539,82.4098446 C165.76497,85.4463364 164.293896,88.0301448 162.219275,90.1613472 C160.144653,92.2925495 157.409965,93.3581347 154.01513,93.3581347 C151.601024,93.3581347 149.997931,92.6791778 149.205803,91.3212435 L146.263627,105.126839 L137.72,107.163731 L147.168912,62.6350259 Z M173.195855,64.7284974 L181.34342,64.7284974 L180.607876,68.2364767 C181.890369,67.1048648 183.050254,66.2373087 184.087565,65.6337824 C185.124876,65.030256 186.247041,64.7284974 187.454093,64.7284974 C188.661146,64.7284974 189.613572,65.1434155 190.311399,65.9732642 C191.009226,66.803113 191.358135,67.8026885 191.358135,68.9720207 C191.358135,70.0659122 190.999796,71.0277679 190.283109,71.8576166 C189.566421,72.6874653 188.566846,73.1023834 187.284352,73.1023834 C186.454504,73.1023834 185.898136,72.9043543 185.615233,72.5082902 C185.33233,72.112226 185.115441,71.5369986 184.96456,70.7825907 C184.851398,70.2922255 184.738239,69.9338871 184.625078,69.7075648 C184.511917,69.4812424 184.304457,69.3680829 184.002694,69.3680829 C183.210566,69.3680829 182.541039,69.5283922 181.994093,69.8490155 C181.447148,70.1696389 180.739901,70.7260064 179.872332,71.5181347 L175.345907,93.0186528 L167.198342,93.0186528 L173.195855,64.7284974 Z M283.584041,75.9879793 L294.900104,75.9879793 L293.938238,80.4578238 L282.565596,80.4578238 L283.584041,75.9879793 Z M152.26114,88.4356477 C154.071719,88.4356477 155.571082,87.5869515 156.759275,85.8895337 C157.947467,84.1921159 158.815023,82.164675 159.361969,79.8071503 C159.908915,77.4496255 160.182383,75.2524454 160.182383,73.215544 C160.182383,70.0847512 159.239388,68.5193782 157.353368,68.5193782 C156.674401,68.5193782 155.986014,68.7645571 155.288187,69.2549223 C154.590359,69.7452874 153.977412,70.4242444 153.449326,71.2918135 L150.111088,87.1343005 C150.412851,88.0018696 151.129528,88.4356477 152.26114,88.4356477 Z M201.146528,88.1527461 C202.051818,88.1527461 202.957094,87.6340985 203.862383,86.5967876 C204.767673,85.5594767 205.559789,84.1449831 206.238756,82.3532642 C206.917724,80.5615454 207.408081,78.5718244 207.709845,76.3840415 C206.691394,76.1577191 206.182176,75.3656026 206.182176,74.0076684 C206.182176,72.4611322 206.766834,71.4426968 207.936166,70.9523316 C207.860725,69.7075585 207.672126,68.8494324 207.370363,68.3779275 C207.0686,67.9064225 206.540522,67.6706736 205.786114,67.6706736 C204.541341,67.6706736 203.334306,68.5759495 202.164974,70.3865285 C200.995642,72.1971075 200.052646,74.3659977 199.335959,76.8932642 C198.619271,79.4205308 198.260933,81.6460007 198.260933,83.5697409 C198.260933,85.3803199 198.468392,86.5967845 198.883316,87.219171 C199.29824,87.8415575 200.052637,88.1527461 201.146528,88.1527461 Z M209.180933,102.128083 C209.822179,102.128083 210.453987,101.769745 211.076373,101.053057 C211.69876,100.336369 212.160828,99.2236345 212.462591,97.7148187 L213.141554,94.4331606 C211.217814,95.036687 209.690161,95.8005135 208.558549,96.7246632 C207.426937,97.6488129 206.86114,98.6955382 206.86114,99.8648705 C206.86114,100.694719 207.125179,101.279377 207.653264,101.61886 C208.18135,101.958344 208.690567,102.128083 209.180933,102.128083 Z M268.873161,78.8735751 C270.306536,78.8358547 271.65502,78.3643569 272.918653,77.4590674 C274.182286,76.5537779 275.200722,75.3938931 275.97399,73.9793782 C276.747258,72.5648634 277.133886,71.0843601 277.133886,69.5378238 C277.133886,67.9912876 276.662388,67.2180311 275.719378,67.2180311 C274.399164,67.2180311 273.0884,68.4156357 271.787047,70.8108808 C270.485693,73.206126 269.514407,75.8936639 268.873161,78.8735751 Z M330.093057,87.8698446 C331.036067,87.8698446 331.969633,87.4266366 332.893782,86.5402073 C333.817932,85.653778 334.449739,84.4373134 334.789223,82.8907772 L337.505078,70.1036269 C337.505078,69.6132618 337.316479,69.132334 336.939275,68.660829 C336.562071,68.1893241 335.977413,67.9535751 335.185285,67.9535751 C333.676469,67.9535751 332.318555,68.8305612 331.111503,70.5845596 C329.90445,72.338558 328.961454,74.4508685 328.282487,76.9215544 C327.60352,79.3922403 327.264041,81.5705605 327.264041,83.4565803 C327.264041,85.3426001 327.53751,86.5496347 328.084456,87.0777202 C328.631402,87.6058057 329.300929,87.8698446 330.093057,87.8698446 Z M381.128497,87.8698446 C382.033787,87.8698446 382.948493,87.4549264 383.872642,86.6250777 C384.796792,85.795229 385.428599,84.6447742 385.768083,83.1736788 L385.768083,82.8907772 L388.540518,69.933886 C388.201035,68.6136722 387.427778,67.9535751 386.220725,67.9535751 C384.71191,67.9535751 383.353996,68.8305612 382.146943,70.5845596 C380.93989,72.338558 379.996895,74.4508685 379.317927,76.9215544 C378.63896,79.3922403 378.299482,81.5705605 378.299482,83.4565803 C378.299482,85.3426001 378.572951,86.5496347 379.119896,87.0777202 C379.666842,87.6058057 380.336369,87.8698446 381.128497,87.8698446 Z M405.005389,88.8882902 C406.401043,88.8882902 407.570358,88.473372 408.513368,87.6435233 C409.456378,86.8136746 409.927876,85.4746206 409.927876,83.6263212 C409.927876,82.4947094 409.814716,80.9104765 409.588394,78.8735751 C409.21119,74.57345 408.966011,71.687883 408.85285,70.2167876 C407.94756,73.1966988 406.419907,76.7612228 404.269845,80.9104663 C405.137414,81.3631111 405.571192,82.0232081 405.571192,82.8907772 C405.571192,83.6074647 405.335443,84.2487018 404.863938,84.8145078 C404.392433,85.3803137 403.798346,85.6632124 403.081658,85.6632124 C402.28953,85.6632124 401.780312,85.4180335 401.55399,84.9276684 C401.55399,86.2856026 401.827458,87.2851781 402.374404,87.9264249 C402.92135,88.5676716 403.798336,88.8882902 405.005389,88.8882902 Z" id="profile-cards-copy" fill="#A2DEAF"></path>
                    <path d="M311.658321,40.4544132 C310.932348,41.619493 310.163721,42.5156707 309.352435,43.1429534 C307.522996,44.5574682 305.627575,45.264715 303.666114,45.264715 C301.36517,45.264715 299.677207,44.6517678 298.602176,43.4258549 C297.527145,42.1999421 296.989637,40.6817189 296.989637,38.8711399 C296.989637,38.0790116 297.083937,37.1831656 297.272539,36.1835751 C297.461141,35.1839846 297.65917,34.212699 297.866632,33.2696891 C298.074094,32.3266792 298.215544,31.7231619 298.290984,31.4591192 C298.592748,30.1389053 298.875646,28.8375712 299.139689,27.5550777 C299.403732,26.2725843 299.535751,25.2352889 299.535751,24.4431606 C299.535751,22.5194204 298.856794,21.5575648 297.49886,21.5575648 C296.51813,21.5575648 295.650574,22.0384926 294.896166,23.0003627 C294.141758,23.9622328 293.538241,25.2164171 293.085596,26.7629534 L289.238135,44.9252332 L281.09057,44.9252332 L285.220933,25.4050259 C285.334094,24.9523812 285.390674,24.4808833 285.390674,23.9905181 C285.390674,22.3308207 284.824876,21.5009845 283.693264,21.5009845 C282.637093,21.5009845 281.722387,21.9819123 280.949119,22.9437824 C280.175851,23.9056525 279.562904,25.1786967 279.110259,26.7629534 L275.262798,44.9252332 L267.115233,44.9252332 L270.952428,26.8252591 C269.477579,27.4129858 267.896763,27.8448566 266.209948,28.1208808 C265.908185,31.5534369 265.134929,34.5521633 263.890155,37.1171503 C262.645382,39.6821372 261.04229,41.6624283 259.080829,43.0580829 C257.119368,44.4537375 254.988198,45.1515544 252.687254,45.1515544 C249.895945,45.1515544 247.689335,44.4348776 246.067358,43.0015026 C244.756451,41.8430268 243.975299,40.1425058 243.723891,37.8999039 C242.03738,39.3821583 240.178128,40.7054838 238.146114,41.8698964 C237.052223,43.0392286 235.703739,43.8973548 234.100622,44.4443005 C232.497505,44.9912463 230.884982,45.264715 229.263005,45.264715 C227.452426,45.264715 225.924773,44.9158066 224.68,44.2179793 C223.435227,43.520152 222.511091,42.614876 221.907565,41.5021244 C221.575554,40.8899803 221.334868,40.2635723 221.185503,39.6228947 C217.721441,43.3841221 213.718625,45.264715 209.176995,45.264715 C206.385686,45.264715 204.216795,44.5386083 202.670259,43.0863731 C201.123723,41.6341378 200.350466,39.3615181 200.350466,36.2684456 C200.350466,33.6657383 200.859684,30.7990312 201.878135,27.6682383 C202.896585,24.5374455 204.556258,21.8310477 206.857202,19.5489637 C209.158146,17.2668798 212.081433,16.1258549 215.62715,16.1258549 C219.776394,16.1258549 221.850984,17.9364068 221.850984,21.5575648 C221.850984,23.6699069 221.247467,25.6124782 220.040415,27.3853368 C218.833362,29.1581954 217.230269,30.582119 215.231088,31.6571503 C213.231907,32.7321815 211.100737,33.3451288 208.837513,33.4960104 C208.762072,34.6276222 208.724352,35.3820188 208.724352,35.7592228 C208.724352,37.6075222 209.044971,38.8617065 209.686218,39.5218135 C210.327464,40.1819204 211.36476,40.5119689 212.798135,40.5119689 C214.835036,40.5119689 216.579578,40.040471 218.031813,39.0974611 C219.010489,38.4619579 220.053393,37.6037631 221.160543,36.5228637 C221.303403,35.8852277 221.542979,35.300631 221.879275,34.7690674 C222.463941,33.8449177 223.171188,33.1753907 224.001036,32.7604663 C225.472132,30.1200386 226.754606,27.4513606 227.848497,24.7543523 C228.942389,22.057344 229.979684,19.1434872 230.960415,16.0126943 L239.334301,14.8810881 C239.522902,19.7092988 239.843521,24.9334952 240.296166,30.5538342 C240.484768,32.8170579 240.579067,34.4578706 240.579067,35.4763212 C240.579067,36.3438903 240.503628,37.0605671 240.352746,37.6263731 C241.686448,36.8602039 242.785316,36.1367377 243.649369,35.4559622 C243.742042,33.0906308 244.265133,30.4947438 245.218653,27.6682383 C246.274824,24.5374455 247.972216,21.8310477 250.310881,19.5489637 C252.649545,17.2668798 255.591692,16.1258549 259.137409,16.1258549 C263.96562,16.1258549 266.379689,19.1434413 266.379689,25.1787047 L266.379689,25.235285 C266.49285,25.2730054 266.700309,25.2918653 267.002073,25.2918653 C268.246846,25.2918653 269.680199,24.9618168 271.302176,24.3017098 C271.370102,24.2740656 271.437763,24.2461733 271.50516,24.2180329 L273.112746,16.6350777 L281.260311,16.6350777 L280.637927,19.5772539 C282.561668,17.4271913 284.862577,16.3521762 287.540725,16.3521762 C290.86012,16.3521762 292.802691,17.9741289 293.368497,21.2180829 C295.443119,18.0118493 298.064647,16.4087565 301.233161,16.4087565 C303.156901,16.4087565 304.684554,16.9368341 305.816166,17.9930052 C306.947778,19.0491763 307.513575,20.652269 307.513575,22.8023316 C307.513575,23.8962231 307.381556,25.1126876 307.117513,26.4517617 C306.85347,27.7908357 306.476272,29.4222184 305.985907,31.3459585 C305.684144,32.5152908 305.410675,33.6563157 305.165492,34.7690674 C304.92031,35.881819 304.79772,36.7588051 304.79772,37.4000518 C304.79772,38.1544597 304.967459,38.7391171 305.306943,39.1540415 C305.646427,39.5689658 306.231084,39.7764249 307.060933,39.7764249 C308.192545,39.7764249 309.09782,39.3709367 309.776788,38.5599482 C310.192552,38.0633409 310.608312,37.4005482 311.024074,36.5715617 C311.022394,36.471414 311.021554,36.3703753 311.021554,36.2684456 C311.021554,33.6657383 311.530772,30.7990312 312.549223,27.6682383 C313.567673,24.5374455 315.227346,21.8310477 317.52829,19.5489637 C319.829234,17.2668798 322.752521,16.1258549 326.298238,16.1258549 C330.447482,16.1258549 332.522073,17.9364068 332.522073,21.5575648 C332.522073,23.6699069 331.918555,25.6124782 330.711503,27.3853368 C329.50445,29.1581954 327.901357,30.582119 325.902176,31.6571503 C323.902995,32.7321815 321.771825,33.3451288 319.508601,33.4960104 C319.43316,34.3258591 319.39544,34.8916565 319.39544,35.1934197 C319.39544,38.3242125 320.564755,39.8895855 322.90342,39.8895855 C323.959591,39.8895855 325.091186,39.6066868 326.298238,39.0408808 C327.505291,38.4750749 328.599166,37.7583981 329.579896,36.890829 C328.561446,42.4734476 325.29868,45.264715 319.791503,45.264715 C317.037914,45.264715 314.887883,44.5386083 313.341347,43.0863731 C312.605075,42.3949959 312.044068,41.5176784 311.658321,40.4544132 Z M138.225285,51.3753886 C136.82963,51.3753886 135.603736,51.2622291 134.547565,51.0359067 C133.491394,50.8095844 132.576688,50.2626468 131.80342,49.3950777 C131.030152,48.5275086 130.643523,47.1884546 130.643523,45.3778756 C130.643523,42.8506091 131.40735,39.4558244 132.935026,35.1934197 C134.462702,30.931015 136.471283,26.6498142 138.960829,22.3496891 C137.074809,22.4628503 135.584876,22.745749 134.490984,23.1983938 C133.397093,23.6510385 132.680416,24.3488554 132.340933,25.2918653 C132.491814,25.2918653 132.652124,25.4804644 132.821865,25.8576684 C132.991607,26.2348724 133.076477,26.6309306 133.076477,27.0458549 C133.076477,27.724822 132.774718,28.2623296 132.171192,28.6583938 C131.567665,29.0544579 130.813269,29.252487 129.907979,29.252487 C128.851808,29.252487 128.003112,28.9695883 127.361865,28.4037824 C126.720619,27.8379764 126.4,27.0270001 126.4,25.970829 C126.4,24.6883356 126.899788,23.5190208 127.899378,22.4628497 C128.898969,21.4066787 130.285172,20.5674124 132.058031,19.9450259 C133.83089,19.3226394 135.792321,19.0114508 137.942383,19.0114508 C138.734512,19.0114508 139.715227,19.0680305 140.88456,19.1811917 C143.977632,14.2775402 147.249827,10.2698083 150.701244,7.15787565 C154.15266,4.04594299 157.443715,2.49 160.574508,2.49 C162.385087,2.49 163.87502,2.75403881 165.044352,3.28212435 L156.161244,44.9252332 L148.013679,44.9252332 L152.370363,24.3865803 C150.974708,23.7453336 149.692234,23.2738357 148.522902,22.9720725 C147.353569,22.6703094 146.108815,22.4628503 144.788601,22.3496891 C142.638538,26.9892978 140.875136,31.7325664 139.498342,36.5796373 C138.121548,41.4267082 137.433161,45.3024207 137.433161,48.2068912 C137.433161,49.6402662 137.697199,50.6964215 138.225285,51.3753886 Z M169.287876,45.264715 C167.477297,45.264715 166.015653,44.6989176 164.902902,43.5673057 C163.79015,42.4356938 163.233782,40.7383015 163.233782,38.4750777 C163.233782,37.5320678 163.384662,36.3061733 163.686425,34.7973575 L167.533886,16.6350777 L175.681451,16.6350777 L171.607668,35.8723834 C171.494507,36.3250282 171.437927,36.796526 171.437927,37.2868912 C171.437927,38.9465886 172.003725,39.7764249 173.135337,39.7764249 C174.191508,39.7764249 175.096784,39.3332169 175.851192,38.4467876 C176.6056,37.5603583 177.209117,36.3438937 177.661762,34.7973575 L181.509223,16.6350777 L189.656788,16.6350777 L185.583005,35.8723834 C185.394403,36.8153933 185.300104,37.4943503 185.300104,37.9092746 C185.300104,39.1540477 185.941341,39.7764249 187.223834,39.7764249 C188.958972,39.7764249 190.571495,38.6825498 192.061451,36.4947668 C193.551406,34.3069839 194.749011,31.7043156 195.654301,28.6866839 C196.55959,25.6690523 197.012228,23.066384 197.012228,20.878601 C196.936787,21.067203 196.691608,21.2086524 196.276684,21.3029534 C195.86176,21.3972544 195.503421,21.4444041 195.201658,21.4444041 C194.560411,21.4444041 194.060624,21.1426455 193.70228,20.5391192 C193.343936,19.9355928 193.164767,19.2754958 193.164767,18.5588083 C193.164767,17.6535188 193.457096,16.9179821 194.041762,16.3521762 C194.626428,15.7863702 195.503414,15.5034715 196.672746,15.5034715 C197.917519,15.5034715 198.822795,15.9655394 199.388601,16.8896891 C199.954407,17.8138388 200.237306,18.9925835 200.237306,20.4259585 C200.237306,23.8207942 199.652648,27.4513278 198.483316,31.3176684 C197.313984,35.184009 195.522292,38.4750641 193.108187,41.1909326 C190.694081,43.9068011 187.695355,45.264715 184.111917,45.264715 C182.263618,45.264715 180.754824,44.8686568 179.585492,44.0765285 C178.41616,43.2844002 177.661763,42.0962255 177.32228,40.5119689 C175.209938,43.6804822 172.53183,45.264715 169.287876,45.264715 Z M156.161244,6.50720207 C154.539267,7.37477118 152.851304,8.98729391 151.097306,11.3448187 C149.343307,13.7023434 147.636485,16.5596205 145.976788,19.9167358 C148.692656,20.4448213 150.993566,21.1049183 152.879585,21.8970466 L156.161244,6.50720207 Z M209.290155,30.7801554 C210.68581,30.7047146 212.015434,30.2143569 213.279067,29.3090674 C214.542701,28.4037779 215.561136,27.253323 216.334404,25.8576684 C217.107672,24.4620137 217.494301,22.9909404 217.494301,21.4444041 C217.494301,19.8978679 217.022803,19.1246114 216.079793,19.1246114 C214.721858,19.1246114 213.392234,20.312786 212.090881,22.689171 C210.789527,25.0655559 209.855961,27.7625238 209.290155,30.7801554 Z M227.452435,40.7948705 C228.84809,40.7948705 230.017405,40.3799523 230.960415,39.5501036 C231.903424,38.7202549 232.374922,37.381201 232.374922,35.5329016 C232.374922,34.4012897 232.261763,32.8170568 232.03544,30.7801554 C231.658236,26.4800303 231.413058,23.5944633 231.299896,22.1233679 C230.394607,25.1032791 228.866954,28.6678031 226.716891,32.8170466 C227.58446,33.2696914 228.018238,33.9297884 228.018238,34.7973575 C228.018238,35.514045 227.782489,36.1552821 227.310984,36.7210881 C226.83948,37.286894 226.245392,37.5697927 225.528705,37.5697927 C224.736576,37.5697927 224.227359,37.3246139 224.001036,36.8342487 C224.001036,38.192183 224.274505,39.1917585 224.821451,39.8330052 C225.368397,40.4742519 226.245383,40.7948705 227.452435,40.7948705 Z M254.950466,40.0593264 C255.855756,40.0593264 256.761032,39.5406788 257.666321,38.5033679 C258.571611,37.466057 259.363727,36.0515634 260.042694,34.2598446 C260.721661,32.4681258 261.212019,30.4784047 261.513782,28.2906218 C260.495332,28.0642994 259.986114,27.272183 259.986114,25.9142487 C259.986114,24.3677125 260.570771,23.3492771 261.740104,22.8589119 C261.664663,21.6141389 261.476064,20.7560127 261.174301,20.2845078 C260.872537,19.8130028 260.34446,19.5772539 259.590052,19.5772539 C258.345279,19.5772539 257.138244,20.4825298 255.968912,22.2931088 C254.79958,24.1036878 253.856584,26.272578 253.139896,28.7998446 C252.423209,31.3271111 252.06487,33.5525811 252.06487,35.4763212 C252.06487,37.2869002 252.27233,38.5033648 252.687254,39.1257513 C253.102178,39.7481378 253.856575,40.0593264 254.950466,40.0593264 Z M319.904663,30.7801554 C321.338038,30.742435 322.686522,30.2709372 323.950155,29.3656477 C325.213789,28.4603582 326.232224,27.3004734 327.005492,25.8859585 C327.77876,24.4714437 328.165389,22.9909404 328.165389,21.4444041 C328.165389,19.8978679 327.693891,19.1246114 326.750881,19.1246114 C325.430667,19.1246114 324.119903,20.322216 322.818549,22.7174611 C321.517196,25.1127063 320.54591,27.8002442 319.904663,30.7801554 Z" id="Awesome-Copy" fill="#A2DEAF"></path>
                    <path d="M397.145844,85.0506885 C397.140083,84.9336553 397.137202,84.816172 397.137202,84.6982383 C397.137202,83.4534653 397.429531,82.3690202 398.014197,81.4448705 C398.598863,80.5207208 399.30611,79.8511938 400.135959,79.4362694 C401.607054,76.7958417 402.889528,74.1271637 403.98342,71.4301554 C405.077311,68.7331471 406.114606,65.8192903 407.095337,62.6884974 L415.469223,61.5568912 C415.657825,66.3851019 415.978443,71.6092983 416.431088,77.2296373 C416.61969,79.4928611 416.71399,81.1336737 416.71399,82.1521244 C416.71399,84.4530685 416.129332,86.33906 414.96,87.8101554 C413.790668,89.2812509 412.347884,90.3374061 410.631606,90.9786528 C408.915328,91.6198996 407.170786,91.9405181 405.397927,91.9405181 C403.587348,91.9405181 402.059695,91.5916097 400.814922,90.8937824 C399.570149,90.1959551 398.646013,89.2906791 398.042487,88.1779275 C397.991951,88.0847519 397.943531,87.991246 397.897227,87.8974095 C395.793515,90.3665015 393.144948,91.6010363 389.951503,91.6010363 C388.404966,91.6010363 387.150782,91.1861181 386.188912,90.3562694 C385.227042,89.5264207 384.632954,88.3193862 384.406632,86.7351295 C383.425902,88.2439454 382.247157,89.4886998 380.870363,90.4694301 C379.493568,91.4501603 377.881046,91.9405181 376.032746,91.9405181 C373.882684,91.9405181 372.090992,91.2049814 370.657617,89.733886 C369.224242,88.2627906 368.507565,85.9618809 368.507565,82.8310881 C368.507565,80.0397788 369.063932,77.107062 370.176684,74.0328497 C371.289436,70.9586375 372.949108,68.3559692 375.155751,66.2247668 C377.362394,64.0935645 379.993353,63.0279793 383.048705,63.0279793 C384.595241,63.0279793 385.745696,63.2920181 386.500104,63.8201036 C387.254512,64.3481892 387.63171,65.046006 387.63171,65.9135751 L387.63171,66.1398964 L390.404145,53.1264249 L398.778031,51.9948187 L392.271295,82.5481865 C392.120414,83.1139925 392.044974,83.7175097 392.044974,84.3587565 C392.044974,85.1131644 392.224143,85.650672 392.582487,85.9712953 C392.940831,86.2919187 393.534918,86.452228 394.364767,86.452228 C395.420938,86.452228 396.335644,85.99959 397.108912,85.0943005 C397.121263,85.0798402 397.133574,85.0653028 397.145844,85.0506885 Z M346.445074,88.6471963 C346.034621,89.0791219 345.608992,89.4507815 345.168187,89.7621762 C343.112425,91.2144114 341.047264,91.9405181 338.972642,91.9405181 C337.388386,91.9405181 336.115342,91.4973101 335.153472,90.6108808 C334.191601,89.7244515 333.616374,88.4325473 333.427772,86.7351295 C332.333881,88.2816658 331.117416,89.5358501 329.778342,90.4977202 C328.439268,91.4595903 326.845605,91.9405181 324.997306,91.9405181 C322.847243,91.9405181 321.055551,91.2049814 319.622176,89.733886 C318.560227,88.6439904 317.891668,87.0986153 317.616492,85.0977324 C313.921722,89.659608 309.573523,91.9405181 304.571813,91.9405181 C301.780504,91.9405181 299.611614,91.2144114 298.065078,89.7621762 C296.518541,88.3099409 295.745285,86.0373212 295.745285,82.9442487 C295.745285,80.3415414 296.263933,77.4748343 297.301244,74.3440415 C298.338554,71.2132486 299.998227,68.5068508 302.280311,66.2247668 C304.562395,63.9426829 307.457392,62.801658 310.965389,62.801658 C313.228612,62.801658 314.841135,63.2920158 315.803005,64.2727461 C316.764875,65.2534764 317.245803,66.4982308 317.245803,68.0070466 C317.245803,69.3272605 316.962904,70.3456959 316.397098,71.0623834 C315.831293,71.7790709 315.114616,72.1374093 314.247047,72.1374093 C313.6058,72.1374093 312.945703,71.9110903 312.266736,71.4584456 C312.719381,70.2136725 312.945699,69.1009375 312.945699,68.1202073 C312.945699,67.4035197 312.81368,66.8377223 312.549637,66.4227979 C312.285595,66.0078736 311.889536,65.8004145 311.361451,65.8004145 C310.229839,65.8004145 309.098244,66.7245503 307.966632,68.5728497 C306.83502,70.4211491 305.910884,72.665479 305.194197,75.3059067 C304.477509,77.9463344 304.119171,80.3226837 304.119171,82.4350259 C304.119171,84.2833253 304.43979,85.5375097 305.081036,86.1976166 C305.722283,86.8577235 306.759578,87.187772 308.192953,87.187772 C310.229855,87.187772 311.974397,86.7162741 313.426632,85.7732642 C314.673442,84.9636473 316.024499,83.7925978 317.479832,82.2600885 C317.550308,79.6405466 318.104108,76.8981574 319.141244,74.0328497 C320.253995,70.9586375 321.913668,68.3559692 324.120311,66.2247668 C326.326954,64.0935645 328.957912,63.0279793 332.013264,63.0279793 C333.5598,63.0279793 334.710255,63.2920181 335.464663,63.8201036 C336.219071,64.3481892 336.596269,65.046006 336.596269,65.9135751 L336.596269,66.3096373 L337.218653,63.3108808 L345.366218,63.3108808 L341.292435,82.5481865 C341.141554,83.1139925 341.066114,83.7175097 341.066114,84.3587565 C341.066114,85.9807335 341.839371,86.7917098 343.385907,86.7917098 C344.442078,86.7917098 345.356784,86.3013521 346.130052,85.3206218 C346.896928,84.3479988 347.506122,83.0786002 347.957653,81.5123882 L351.816373,63.3108808 L359.963938,63.3108808 L359.228394,66.8188601 C360.510887,65.6872482 361.670772,64.8196921 362.708083,64.2161658 C363.745394,63.6126395 364.867559,63.3108808 366.074611,63.3108808 C367.281664,63.3108808 368.23409,63.725799 368.931917,64.5556477 C369.629744,65.3854964 369.978653,66.3850719 369.978653,67.5544041 C369.978653,68.6482956 369.620314,69.6101513 368.903627,70.44 C368.186939,71.2698487 367.187364,71.6847668 365.90487,71.6847668 C365.075022,71.6847668 364.518654,71.4867377 364.235751,71.0906736 C363.952848,70.6946094 363.735959,70.119382 363.585078,69.3649741 C363.471917,68.8746089 363.358757,68.5162706 363.245596,68.2899482 C363.132435,68.0636258 362.924976,67.9504663 362.623212,67.9504663 C361.831084,67.9504663 361.161557,68.1107756 360.614611,68.431399 C360.067666,68.7520223 359.360419,69.3083898 358.49285,70.1005181 L353.966425,91.6010363 L345.81886,91.6010363 L346.445074,88.6471963 Z M259.136142,86.9215816 C258.29657,88.146477 257.372987,89.0933391 256.365389,89.7621762 C254.177606,91.2144114 252.008715,91.9405181 249.858653,91.9405181 C248.048074,91.9405181 246.58643,91.3747207 245.473679,90.2431088 C244.693842,89.4500543 244.187271,88.3791188 243.953961,87.0302846 C243.134538,88.202631 242.236035,89.113259 241.258446,89.7621762 C239.070663,91.2144114 236.901772,91.9405181 234.75171,91.9405181 C232.941131,91.9405181 231.479487,91.3747207 230.366736,90.2431088 C229.253984,89.1114969 228.697617,87.4141046 228.697617,85.1508808 C228.697617,84.2078709 228.848496,82.9819765 229.150259,81.4731606 L232.99772,63.3108808 L241.145285,63.3108808 L237.071503,82.5481865 C236.920621,83.1139925 236.845181,83.7175097 236.845181,84.3587565 C236.845181,85.1131644 237.024351,85.650672 237.382694,85.9712953 C237.741038,86.2919187 238.335125,86.452228 239.164974,86.452228 C240.258866,86.452228 241.277301,85.9901601 242.220311,85.0660104 C243.163321,84.1418607 243.842278,82.9442561 244.257202,81.4731606 L250.311295,53.1264249 L258.685181,51.9948187 L252.178446,82.5481865 C252.027564,83.1139925 251.952124,83.7175097 251.952124,84.3587565 C251.952124,85.1131644 252.131294,85.650672 252.489637,85.9712953 C252.847981,86.2919187 253.442068,86.452228 254.271917,86.452228 C255.365809,86.452228 256.384244,85.9901601 257.327254,85.0660104 C257.814783,84.5882316 258.231736,84.0373634 258.578115,83.4134008 C258.574052,83.2591722 258.572021,83.1027882 258.572021,82.9442487 C258.572021,80.3415414 259.081238,77.4748343 260.099689,74.3440415 C261.11814,71.2132486 262.777812,68.5068508 265.078756,66.2247668 C267.379701,63.9426829 270.302987,62.801658 273.848705,62.801658 C277.997948,62.801658 280.072539,64.6122099 280.072539,68.2333679 C280.072539,70.34571 279.469022,72.2882813 278.261969,74.0611399 C277.054916,75.8339985 275.451823,77.2579221 273.452642,78.3329534 C271.453462,79.4079846 269.322291,80.0209319 267.059067,80.1718135 C266.983627,81.0016622 266.945907,81.5674596 266.945907,81.8692228 C266.945907,85.0000157 268.115221,86.5653886 270.453886,86.5653886 C271.510057,86.5653886 272.641652,86.2824899 273.848705,85.7166839 C275.055757,85.150878 276.149632,84.4342012 277.130363,83.5666321 C276.111912,89.1492507 272.849147,91.9405181 267.341969,91.9405181 C264.58838,91.9405181 262.43835,91.2144114 260.891813,89.7621762 C260.107923,89.0260839 259.5227,88.079222 259.136142,86.9215816 Z M216.404618,70.8427465 L218.4,61.3871503 C219.418451,56.7098212 221.115843,53.5130656 223.492228,51.7967876 C225.868613,50.0805096 228.584441,49.2223834 231.639793,49.2223834 C234.468822,49.2223834 236.864032,49.6938813 238.825492,50.6368912 C240.786953,51.5799011 241.767668,53.2772934 241.767668,55.7291192 C241.767668,57.3133758 241.34332,58.4732606 240.494611,59.2088083 C239.645902,59.944356 238.580317,60.3121244 237.297824,60.3121244 C236.317094,60.3121244 235.506117,60.0763754 234.86487,59.6048705 C234.223624,59.1333655 233.903005,58.350679 233.903005,57.2567876 C233.903005,56.5401 234.082174,55.8988629 234.440518,55.333057 C234.798862,54.7672511 235.26093,54.4843523 235.826736,54.4843523 C236.090779,54.4843523 236.241658,54.5032122 236.279378,54.5409326 C236.241658,53.7865247 235.949329,53.2207273 235.402383,52.8435233 C234.855438,52.4663194 234.110471,52.2777202 233.167461,52.2777202 C231.507764,52.2777202 230.17814,52.8812375 229.178549,54.0882902 C228.178959,55.2953428 227.509432,56.8229959 227.169948,58.6712953 L226.208083,63.3108808 L230.734508,63.3108808 L230.281865,65.5740933 L225.75544,65.5740933 L219.305285,96.1274611 C218.550877,99.6731784 217.249543,102.162687 215.401244,103.596062 C213.552944,105.029437 211.534933,105.746114 209.34715,105.746114 C207.272528,105.746114 205.584566,105.170887 204.283212,104.020415 C202.981859,102.869942 202.331192,101.332859 202.331192,99.4091192 C202.331192,97.8248625 202.78383,96.5235284 203.689119,95.5050777 C204.594409,94.486627 205.707144,93.6756507 207.027358,93.0721244 C208.347571,92.468598 210.044964,91.8273609 212.119585,91.1483938 L215.854142,73.4513085 C214.344085,74.0644731 212.722042,74.5129282 210.987979,74.7966839 C210.686216,78.22924 209.91296,81.2279664 208.668187,83.7929534 C207.423413,86.3579403 205.820321,88.3382314 203.85886,89.733886 C201.8974,91.1295407 199.766229,91.8273575 197.465285,91.8273575 C194.673976,91.8273575 192.467366,91.1106807 190.845389,89.6773057 C189.223412,88.2439307 188.412435,85.9807409 188.412435,82.8876684 C188.412435,80.3226815 188.940513,77.4748343 189.996684,74.3440415 C191.052855,71.2132486 192.750247,68.5068508 195.088912,66.2247668 C197.427576,63.9426829 200.369723,62.801658 203.91544,62.801658 C208.743651,62.801658 211.15772,65.8192444 211.15772,71.8545078 L211.15772,71.9110881 C211.270881,71.9488085 211.47834,71.9676684 211.780104,71.9676684 C213.024877,71.9676684 214.45823,71.6376199 216.080207,70.977513 C216.189023,70.9332274 216.29716,70.8883052 216.404618,70.8427465 Z M145.750881,61.2174093 L153.898446,61.2174093 L152.993161,65.4609326 C154.87918,63.8389556 157.08579,63.0279793 159.613057,63.0279793 C161.725399,63.0279793 163.403932,63.7257961 164.648705,65.1214508 C165.893478,66.5171054 166.515855,68.7991551 166.515855,71.9676684 C166.515855,74.9475797 166.082077,77.9557361 165.214508,80.992228 C164.346939,84.0287198 162.875865,86.6125282 160.801244,88.7437306 C158.726622,90.8749329 155.991934,91.9405181 152.597098,91.9405181 C150.182993,91.9405181 148.5799,91.2615612 147.787772,89.9036269 L144.845596,103.709223 L136.301969,105.746114 L145.750881,61.2174093 Z M171.777824,63.3108808 L179.925389,63.3108808 L179.189845,66.8188601 C180.472338,65.6872482 181.632223,64.8196921 182.669534,64.2161658 C183.706845,63.6126395 184.82901,63.3108808 186.036062,63.3108808 C187.243115,63.3108808 188.195541,63.725799 188.893368,64.5556477 C189.591195,65.3854964 189.940104,66.3850719 189.940104,67.5544041 C189.940104,68.6482956 189.581765,69.6101513 188.865078,70.44 C188.14839,71.2698487 187.148815,71.6847668 185.866321,71.6847668 C185.036473,71.6847668 184.480105,71.4867377 184.197202,71.0906736 C183.914299,70.6946094 183.69741,70.119382 183.546528,69.3649741 C183.433367,68.8746089 183.320208,68.5162706 183.207047,68.2899482 C183.093885,68.0636258 182.886426,67.9504663 182.584663,67.9504663 C181.792535,67.9504663 181.123008,68.1107756 180.576062,68.431399 C180.029116,68.7520223 179.32187,69.3083898 178.454301,70.1005181 L173.927876,91.6010363 L165.780311,91.6010363 L171.777824,63.3108808 Z M282.16601,74.5703627 L293.482073,74.5703627 L292.520207,79.0402073 L281.147565,79.0402073 L282.16601,74.5703627 Z M150.843109,87.0180311 C152.653688,87.0180311 154.153051,86.1693349 155.341244,84.4719171 C156.529436,82.7744993 157.396992,80.7470584 157.943938,78.3895337 C158.490884,76.0320089 158.764352,73.8348288 158.764352,71.7979275 C158.764352,68.6671346 157.821357,67.1017617 155.935337,67.1017617 C155.25637,67.1017617 154.567983,67.3469406 153.870155,67.8373057 C153.172328,68.3276708 152.559381,69.0066278 152.031295,69.8741969 L148.693057,85.7166839 C148.99482,86.584253 149.711497,87.0180311 150.843109,87.0180311 Z M199.728497,86.7351295 C200.633787,86.7351295 201.539063,86.2164819 202.444352,85.179171 C203.349642,84.1418601 204.141758,82.7273665 204.820725,80.9356477 C205.499693,79.1439289 205.99005,77.1542078 206.291813,74.9664249 C205.273363,74.7401025 204.764145,73.9479861 204.764145,72.5900518 C204.764145,71.0435156 205.348802,70.0250802 206.518135,69.534715 C206.442694,68.289942 206.254095,67.4318158 205.952332,66.9603109 C205.650568,66.4888059 205.122491,66.253057 204.368083,66.253057 C203.12331,66.253057 201.916275,67.1583329 200.746943,68.9689119 C199.577611,70.7794909 198.634615,72.9483811 197.917927,75.4756477 C197.20124,78.0029142 196.842902,80.2283842 196.842902,82.1521244 C196.842902,83.9627034 197.050361,85.1791679 197.465285,85.8015544 C197.880209,86.4239409 198.634606,86.7351295 199.728497,86.7351295 Z M207.762902,100.710466 C208.404148,100.710466 209.035955,100.352128 209.658342,99.6354404 C210.280729,98.9187529 210.742796,97.8060179 211.04456,96.2972021 L211.723523,93.015544 C209.799783,93.6190704 208.27213,94.3828969 207.140518,95.3070466 C206.008906,96.2311963 205.443109,97.2779216 205.443109,98.4472539 C205.443109,99.2771026 205.707148,99.86176 206.235233,100.201244 C206.763319,100.540727 207.272536,100.710466 207.762902,100.710466 Z M267.45513,77.4559585 C268.888505,77.4182382 270.236989,76.9467403 271.500622,76.0414508 C272.764255,75.1361613 273.78269,73.9762765 274.555959,72.5617617 C275.329227,71.1472468 275.715855,69.6667435 275.715855,68.1202073 C275.715855,66.573671 275.244357,65.8004145 274.301347,65.8004145 C272.981133,65.8004145 271.670369,66.9980191 270.369016,69.3932642 C269.067662,71.7885094 268.096376,74.4760473 267.45513,77.4559585 Z M328.675026,86.452228 C329.618036,86.452228 330.551602,86.00902 331.475751,85.1225907 C332.399901,84.2361614 333.031708,83.0196969 333.371192,81.4731606 L336.087047,68.6860104 C336.087047,68.1956452 335.898447,67.7147174 335.521244,67.2432124 C335.14404,66.7717075 334.559382,66.5359585 333.767254,66.5359585 C332.258438,66.5359585 330.900524,67.4129446 329.693472,69.166943 C328.486419,70.9209414 327.543423,73.0332519 326.864456,75.5039378 C326.185489,77.9746238 325.84601,80.1529439 325.84601,82.0389637 C325.84601,83.9249835 326.119479,85.1320181 326.666425,85.6601036 C327.213371,86.1881892 327.882898,86.452228 328.675026,86.452228 Z M379.710466,86.452228 C380.615756,86.452228 381.530462,86.0373098 382.454611,85.2074611 C383.378761,84.3776124 384.010568,83.2271576 384.350052,81.7560622 L384.350052,81.4731606 L387.122487,68.5162694 C386.783003,67.1960556 386.009747,66.5359585 384.802694,66.5359585 C383.293878,66.5359585 381.935965,67.4129446 380.728912,69.166943 C379.521859,70.9209414 378.578863,73.0332519 377.899896,75.5039378 C377.220929,77.9746238 376.881451,80.1529439 376.881451,82.0389637 C376.881451,83.9249835 377.15492,85.1320181 377.701865,85.6601036 C378.248811,86.1881892 378.918338,86.452228 379.710466,86.452228 Z M403.587358,87.4706736 C404.983012,87.4706736 406.152327,87.0557554 407.095337,86.2259067 C408.038347,85.396058 408.509845,84.0570041 408.509845,82.2087047 C408.509845,81.0770928 408.396685,79.4928599 408.170363,77.4559585 C407.793159,73.1558334 407.54798,70.2702664 407.434819,68.799171 C406.529529,71.7790823 405.001876,75.3436062 402.851813,79.4928497 C403.719383,79.9454945 404.153161,80.6055915 404.153161,81.4731606 C404.153161,82.1898481 403.917412,82.8310853 403.445907,83.3968912 C402.974402,83.9626971 402.380314,84.2455959 401.663627,84.2455959 C400.871499,84.2455959 400.362281,84.000417 400.135959,83.5100518 C400.135959,84.8679861 400.409427,85.8675616 400.956373,86.5088083 C401.503319,87.150055 402.380305,87.4706736 403.587358,87.4706736 Z" id="profile-cards" fill="#114E4E"></path>
                    <path d="M310.244228,39.036952 C309.518255,40.2020319 308.749628,41.0982095 307.938342,41.7254922 C306.108903,43.1400071 304.213481,43.8472539 302.252021,43.8472539 C299.951077,43.8472539 298.263114,43.2343066 297.188083,42.0083938 C296.113052,40.7824809 295.575544,39.2642578 295.575544,37.4536788 C295.575544,36.6615504 295.669844,35.7657045 295.858446,34.766114 C296.047048,33.7665235 296.245077,32.7952379 296.452539,31.852228 C296.660001,30.9092181 296.80145,30.3057008 296.876891,30.041658 C297.178654,28.7214442 297.461553,27.42011 297.725596,26.1376166 C297.989639,24.8551231 298.121658,23.8178278 298.121658,23.0256995 C298.121658,21.1019593 297.442701,20.1401036 296.084767,20.1401036 C295.104037,20.1401036 294.23648,20.6210315 293.482073,21.5829016 C292.727665,22.5447716 292.124147,23.798956 291.671503,25.3454922 L287.824041,43.507772 L279.676477,43.507772 L283.806839,23.9875648 C283.920001,23.53492 283.97658,23.0634221 283.97658,22.573057 C283.97658,20.9133596 283.410783,20.0835233 282.279171,20.0835233 C281.223,20.0835233 280.308294,20.5644511 279.535026,21.5263212 C278.761758,22.4881913 278.148811,23.7612356 277.696166,25.3454922 L273.848705,43.507772 L265.70114,43.507772 L269.538334,25.407798 C268.063486,25.9955247 266.48267,26.4273955 264.795855,26.7034197 C264.494092,30.1359757 263.720835,33.1347022 262.476062,35.6996891 C261.231289,38.264676 259.628196,40.2449671 257.666736,41.6406218 C255.705275,43.0362764 253.574105,43.7340933 251.273161,43.7340933 C248.481851,43.7340933 246.275241,43.0174165 244.653264,41.5840415 C243.342357,40.4255656 242.561206,38.7250447 242.309797,36.4824428 C240.623287,37.9646971 238.764035,39.2880227 236.732021,40.4524352 C235.638129,41.6217675 234.289645,42.4798936 232.686528,43.0268394 C231.083412,43.5737851 229.470889,43.8472539 227.848912,43.8472539 C226.038333,43.8472539 224.51068,43.4983455 223.265907,42.8005181 C222.021134,42.1026908 221.096998,41.1974149 220.493472,40.0846632 C220.161461,39.4725191 219.920775,38.8461112 219.77141,38.2054336 C216.307347,41.9666609 212.304532,43.8472539 207.762902,43.8472539 C204.971592,43.8472539 202.802702,43.1211472 201.256166,41.6689119 C199.70963,40.2166767 198.936373,37.9440569 198.936373,34.8509845 C198.936373,32.2482771 199.445591,29.3815701 200.464041,26.2507772 C201.482492,23.1199843 203.142165,20.4135865 205.443109,18.1315026 C207.744053,15.8494186 210.66734,14.7083938 214.213057,14.7083938 C218.362301,14.7083938 220.436891,16.5189456 220.436891,20.1401036 C220.436891,22.2524458 219.833374,24.195017 218.626321,25.9678756 C217.419269,27.7407343 215.816176,29.1646578 213.816995,30.2396891 C211.817814,31.3147204 209.686643,31.9276676 207.42342,32.0785492 C207.347979,33.2101611 207.310259,33.9645577 207.310259,34.3417617 C207.310259,36.1900611 207.630878,37.4442454 208.272124,38.1043523 C208.913371,38.7644593 209.950666,39.0945078 211.384041,39.0945078 C213.420943,39.0945078 215.165485,38.6230099 216.61772,37.68 C217.596395,37.0444967 218.6393,36.186302 219.74645,35.1054025 C219.889309,34.4677665 220.128886,33.8831698 220.465181,33.3516062 C221.049847,32.4274565 221.757094,31.7579295 222.586943,31.3430052 C224.058038,28.7025775 225.340513,26.0338995 226.434404,23.3368912 C227.528296,20.6398829 228.565591,17.726026 229.546321,14.5952332 L237.920207,13.4636269 C238.108809,18.2918376 238.429428,23.5160341 238.882073,29.1363731 C239.070675,31.3995968 239.164974,33.0404094 239.164974,34.0588601 C239.164974,34.9264292 239.089534,35.643106 238.938653,36.2089119 C240.272355,35.4427428 241.371223,34.7192765 242.235276,34.0385011 C242.327949,31.6731697 242.85104,29.0772827 243.80456,26.2507772 C244.860731,23.1199843 246.558123,20.4135865 248.896788,18.1315026 C251.235452,15.8494186 254.177599,14.7083938 257.723316,14.7083938 C262.551527,14.7083938 264.965596,17.7259802 264.965596,23.7612435 L264.965596,23.8178238 C265.078757,23.8555442 265.286216,23.8744041 265.587979,23.8744041 C266.832752,23.8744041 268.266106,23.5443556 269.888083,22.8842487 C269.956009,22.8566044 270.02367,22.8287121 270.091067,22.8005717 L271.698653,15.2176166 L279.846218,15.2176166 L279.223834,18.1597927 C281.147574,16.0097302 283.448484,14.934715 286.126632,14.934715 C289.446027,14.934715 291.388598,16.5566677 291.954404,19.8006218 C294.029026,16.5943881 296.650554,14.9912953 299.819067,14.9912953 C301.742808,14.9912953 303.270461,15.519373 304.402073,16.575544 C305.533684,17.6317151 306.099482,19.2348079 306.099482,21.3848705 C306.099482,22.4787619 305.967462,23.6952265 305.70342,25.0343005 C305.439377,26.3733746 305.062179,28.0047572 304.571813,29.9284974 C304.27005,31.0978297 303.996582,32.2388545 303.751399,33.3516062 C303.506216,34.4643579 303.383627,35.3413439 303.383627,35.9825907 C303.383627,36.7369986 303.553366,37.321656 303.89285,37.7365803 C304.232333,38.1515047 304.816991,38.3589637 305.646839,38.3589637 C306.778451,38.3589637 307.683727,37.9534756 308.362694,37.142487 C308.778459,36.6458797 309.194219,35.9830871 309.60998,35.1541006 C309.608301,35.0539529 309.607461,34.9529142 309.607461,34.8509845 C309.607461,32.2482771 310.116679,29.3815701 311.13513,26.2507772 C312.15358,23.1199843 313.813253,20.4135865 316.114197,18.1315026 C318.415141,15.8494186 321.338428,14.7083938 324.884145,14.7083938 C329.033389,14.7083938 331.107979,16.5189456 331.107979,20.1401036 C331.107979,22.2524458 330.504462,24.195017 329.297409,25.9678756 C328.090357,27.7407343 326.487264,29.1646578 324.488083,30.2396891 C322.488902,31.3147204 320.357732,31.9276676 318.094508,32.0785492 C318.019067,32.9083979 317.981347,33.4741954 317.981347,33.7759585 C317.981347,36.9067514 319.150662,38.4721244 321.489326,38.4721244 C322.545498,38.4721244 323.677092,38.1892256 324.884145,37.6234197 C326.091198,37.0576138 327.185073,36.340937 328.165803,35.4733679 C327.147352,41.0559865 323.884587,43.8472539 318.377409,43.8472539 C315.62382,43.8472539 313.47379,43.1211472 311.927254,41.6689119 C311.190982,40.9775347 310.629974,40.1002172 310.244228,39.036952 Z M136.811192,49.9579275 C135.415537,49.9579275 134.189643,49.844768 133.133472,49.6184456 C132.0773,49.3921232 131.162595,48.8451857 130.389326,47.9776166 C129.616058,47.1100475 129.22943,45.7709935 129.22943,43.9604145 C129.22943,41.433148 129.993257,38.0383633 131.520933,33.7759585 C133.048609,29.5135538 135.05719,25.2323531 137.546736,20.932228 C135.660716,21.0453892 134.170783,21.3282879 133.076891,21.7809326 C131.983,22.2335774 131.266323,22.9313942 130.926839,23.8744041 C131.077721,23.8744041 131.23803,24.0630033 131.407772,24.4402073 C131.577514,24.8174112 131.662383,25.2134694 131.662383,25.6283938 C131.662383,26.3073609 131.360625,26.8448685 130.757098,27.2409326 C130.153572,27.6369968 129.399176,27.8350259 128.493886,27.8350259 C127.437715,27.8350259 126.589019,27.5521272 125.947772,26.9863212 C125.306525,26.4205153 124.985907,25.609539 124.985907,24.5533679 C124.985907,23.2708744 125.485694,22.1015597 126.485285,21.0453886 C127.484875,19.9892175 128.871079,19.1499513 130.643938,18.5275648 C132.416796,17.9051782 134.378228,17.5939896 136.52829,17.5939896 C137.320418,17.5939896 138.301134,17.6505694 139.470466,17.7637306 C142.563539,12.8600791 145.835734,8.85234717 149.28715,5.74041451 C152.738566,2.62848185 156.029622,1.07253886 159.160415,1.07253886 C160.970994,1.07253886 162.460927,1.33657767 163.630259,1.86466321 L154.74715,43.507772 L146.599585,43.507772 L150.956269,22.9691192 C149.560615,22.3278724 148.278141,21.8563746 147.108808,21.5546114 C145.939476,21.2528482 144.694722,21.0453892 143.374508,20.932228 C141.224445,25.5718367 139.461043,30.3151053 138.084249,35.1621762 C136.707454,40.009247 136.019067,43.8849596 136.019067,46.7894301 C136.019067,48.2228051 136.283106,49.2789603 136.811192,49.9579275 Z M167.873782,43.8472539 C166.063203,43.8472539 164.60156,43.2814564 163.488808,42.1498446 C162.376057,41.0182327 161.819689,39.3208403 161.819689,37.0576166 C161.819689,36.1146067 161.970568,34.8887122 162.272332,33.3798964 L166.119793,15.2176166 L174.267358,15.2176166 L170.193575,34.4549223 C170.080414,34.907567 170.023834,35.3790649 170.023834,35.8694301 C170.023834,37.5291275 170.589632,38.3589637 171.721244,38.3589637 C172.777415,38.3589637 173.682691,37.9157557 174.437098,37.0293264 C175.191506,36.1428971 175.795024,34.9264326 176.247668,33.3798964 L180.09513,15.2176166 L188.242694,15.2176166 L184.168912,34.4549223 C183.98031,35.3979322 183.88601,36.0768891 183.88601,36.4918135 C183.88601,37.7365865 184.527247,38.3589637 185.809741,38.3589637 C187.544879,38.3589637 189.157402,37.2650887 190.647358,35.0773057 C192.137313,32.8895227 193.334918,30.2868545 194.240207,27.2692228 C195.145497,24.2515911 195.598135,21.6489229 195.598135,19.4611399 C195.522694,19.6497419 195.277515,19.7911912 194.862591,19.8854922 C194.447666,19.9797932 194.089328,20.026943 193.787565,20.026943 C193.146318,20.026943 192.64653,19.7251844 192.288187,19.121658 C191.929843,18.5181317 191.750674,17.8580347 191.750674,17.1413472 C191.750674,16.2360576 192.043002,15.500521 192.627668,14.934715 C193.212335,14.3689091 194.089321,14.0860104 195.258653,14.0860104 C196.503426,14.0860104 197.408702,14.5480783 197.974508,15.472228 C198.540314,16.3963777 198.823212,17.5751224 198.823212,19.0084974 C198.823212,22.403333 198.238555,26.0338667 197.069223,29.9002073 C195.899891,33.7665478 194.108199,37.057603 191.694093,39.7734715 C189.279988,42.48934 186.281261,43.8472539 182.697824,43.8472539 C180.849524,43.8472539 179.340731,43.4511957 178.171399,42.6590674 C177.002067,41.866939 176.24767,40.6787644 175.908187,39.0945078 C173.795844,42.263021 171.117736,43.8472539 167.873782,43.8472539 Z M154.74715,5.08974093 C153.125173,5.95731004 151.437211,7.56983277 149.683212,9.92735751 C147.929214,12.2848823 146.222392,15.1421594 144.562694,18.4992746 C147.278563,19.0273602 149.579472,19.6874572 151.465492,20.4795855 L154.74715,5.08974093 Z M207.876062,29.3626943 C209.271717,29.2872535 210.601341,28.7968957 211.864974,27.8916062 C213.128607,26.9863167 214.147043,25.8358619 214.920311,24.4402073 C215.693579,23.0445526 216.080207,21.5734792 216.080207,20.026943 C216.080207,18.4804068 215.608709,17.7071503 214.665699,17.7071503 C213.307765,17.7071503 211.978141,18.8953249 210.676788,21.2717098 C209.375434,23.6480948 208.441868,26.3450626 207.876062,29.3626943 Z M226.038342,39.3774093 C227.433997,39.3774093 228.603311,38.9624912 229.546321,38.1326425 C230.489331,37.3027938 230.960829,35.9637398 230.960829,34.1154404 C230.960829,32.9838285 230.84767,31.3995957 230.621347,29.3626943 C230.244143,25.0625692 229.998964,22.1770022 229.885803,20.7059067 C228.980514,23.685818 227.45286,27.2503419 225.302798,31.3995855 C226.170367,31.8522302 226.604145,32.5123273 226.604145,33.3798964 C226.604145,34.0965839 226.368396,34.737821 225.896891,35.3036269 C225.425386,35.8694329 224.831299,36.1523316 224.114611,36.1523316 C223.322483,36.1523316 222.813265,35.9071527 222.586943,35.4167876 C222.586943,36.7747218 222.860412,37.7742973 223.407358,38.415544 C223.954303,39.0567908 224.831289,39.3774093 226.038342,39.3774093 Z M253.536373,38.6418653 C254.441663,38.6418653 255.346938,38.1232176 256.252228,37.0859067 C257.157517,36.0485958 257.949634,34.6341022 258.628601,32.8423834 C259.307568,31.0506646 259.797926,29.0609436 260.099689,26.8731606 C259.081238,26.6468382 258.572021,25.8547218 258.572021,24.4967876 C258.572021,22.9502513 259.156678,21.9318159 260.32601,21.4414508 C260.25057,20.1966777 260.06197,19.3385516 259.760207,18.8670466 C259.458444,18.3955417 258.930366,18.1597927 258.175959,18.1597927 C256.931185,18.1597927 255.724151,19.0650687 254.554819,20.8756477 C253.385486,22.6862267 252.442491,24.8551169 251.725803,27.3823834 C251.009116,29.9096499 250.650777,32.1351199 250.650777,34.0588601 C250.650777,35.8694391 250.858236,37.0859036 251.273161,37.7082902 C251.688085,38.3306767 252.442482,38.6418653 253.536373,38.6418653 Z M318.49057,29.3626943 C319.923945,29.3249739 321.272429,28.853476 322.536062,27.9481865 C323.799695,27.042897 324.818131,25.8830123 325.591399,24.4684974 C326.364667,23.0539826 326.751295,21.5734792 326.751295,20.026943 C326.751295,18.4804068 326.279797,17.7071503 325.336788,17.7071503 C324.016574,17.7071503 322.70581,18.9047549 321.404456,21.3 C320.103102,23.6952451 319.131817,26.382783 318.49057,29.3626943 Z" id="Awesome" fill="#114E4E"></path>
                </g>
            </g>
        </g>
    </g>
</svg>